<svg xmlns="http://www.w3.org/2000/svg" viewBox="0 0 105.89 63.78"><defs><style>.cls-1{fill:#fff;}</style></defs><title>extreme</title><g id="Layer_2" data-name="Layer 2"><g id="Layer_1-2" data-name="Layer 1"><path class="cls-1" d="M102.38,53.27H98.09a34.55,34.55,0,0,1-1.84-7.77c0-16.83-13-31.23-30.33-35.42V31.36a1,1,0,0,1-1,1H41a1,1,0,0,1-1-1V10.16C22.68,15.12,10.5,29.5,10.5,45.5c0,1.56-.9,4.62-1.83,7.77H4.37C1.75,53.27,0,55.89,0,58.52,0,62,1.75,63.78,4.37,63.78h98c1.74,0,3.51-1.76,3.51-5.25C105.89,55.89,104.12,53.27,102.38,53.27ZM86.64,53H19.25a1,1,0,1,1,0-2H86.64a1,1,0,0,1,0,2Z"/><path class="cls-1" d="M63.9,30.36V9.64h0C63,3.5,58.61,0,52.47,0,47.24,0,42,4.38,42,9.63h0V30.36Z"/></g></g></svg>