<svg xmlns="http://www.w3.org/2000/svg" viewBox="0 0 79.9 95.75"><defs><style>.cls-1{fill:#fff;}</style></defs><title>list</title><g id="Layer_2" data-name="Layer 2"><g id="Layer_1-2" data-name="Layer 1"><path class="cls-1" d="M66.94,0H13A13,13,0,0,0,0,13V82.78a13,13,0,0,0,13,13h54a13,13,0,0,0,13-13V13A13,13,0,0,0,66.94,0ZM13.1,67.31a2.42,2.42,0,1,1,2.61-2.21A2.41,2.41,0,0,1,13.1,67.31Zm0-15a2.42,2.42,0,1,1,2.61-2.22A2.42,2.42,0,0,1,13.1,52.34Zm0-15a2.42,2.42,0,1,1,2.61-2.21A2.41,2.41,0,0,1,13.1,37.36Zm0-15a2.42,2.42,0,1,1,2.61-2.22A2.42,2.42,0,0,1,13.1,22.39ZM67.45,65.9H23.27a1,1,0,0,1,0-2H67.45a1,1,0,0,1,0,2Zm0-15H23.27a1,1,0,0,1,0-2H67.45a1,1,0,0,1,0,2Zm0-15H23.27a1,1,0,1,1,0-2H67.45a1,1,0,0,1,0,2Zm0-15H23.27a1,1,0,0,1,0-2H67.45a1,1,0,0,1,0,2Z"/></g></g></svg>