<svg xmlns="http://www.w3.org/2000/svg" viewBox="0 0 84.06 101.34"><defs><style>.cls-1{fill:#fff;}</style></defs><title>money</title><g id="Layer_2" data-name="Layer 2"><g id="Layer_1-2" data-name="Layer 1"><path class="cls-1" d="M51.22,55.78c0,.08,0,.16,0,.23h.25A2.2,2.2,0,0,1,51.22,55.78Z"/><path class="cls-1" d="M47.34,22.05C55.05,15.57,60.2,1,57,.35,52.82-.5,43.67,3.22,39.25,3.87c-6.27.76-13.1-6.8-16.93-2.58-3.12,3.42,2.23,15.88,10.6,21.3C7.94,34.87-27.17,96.5,34.09,101,118.84,107.16,76.4,34,47.34,22.05Zm4.21,28.54a9.22,9.22,0,0,0-6.07-2.21,10.44,10.44,0,0,0-6.18,1.77,10.21,10.21,0,0,0-2.69,3q-.3.49-.54,1a8.65,8.65,0,0,0-.87,2.65l.17.18H50.11l-.59,2.94H34.81c0,.31,0,.6,0,.88,0,1.12,0,1.8,0,2H48.92l-.61,2.94h-13c.61,3.35,2.09,5.72,4.43,7.13a10.49,10.49,0,0,0,5.45,1.51,9,9,0,0,0,6.4-2.15v4.51a14.12,14.12,0,0,1-6,1.28q-9.91,0-13.4-8.25a22.7,22.7,0,0,1-1.2-4H27.55l.62-2.94h2.3c0-.61-.07-1.27-.07-2q0-.43,0-.9H27.55l.62-2.94h2.54q1.37-7.14,7.08-10.25a15.91,15.91,0,0,1,7.78-1.93,12.52,12.52,0,0,1,6.86,1.77Z"/></g></g></svg>