<svg xmlns="http://www.w3.org/2000/svg" viewBox="0 0 136.94 143.31"><defs><style>.cls-1{fill:#fff;}</style></defs><title>music</title><g id="Layer_2" data-name="Layer 2"><g id="Layer_1-2" data-name="Layer 1"><path class="cls-1" d="M93.92,56.26c-6.1-4.63-14-11.75-16.1-15.35V88.2a10.61,10.61,0,0,0-6-1.57,18,18,0,0,0-3.33.33C62.2,88.2,57.07,92.5,57.07,96.57c0,3.33,3.42,5.47,8.13,5.47a17.88,17.88,0,0,0,3.33-.33C74.87,100.47,80,96.17,80,92.1V60.28c1,.48,2.06.88,2.36,1,5.06,2,14,1.35,16,8C98.31,69.28,100,60.9,93.92,56.26Z"/><path class="cls-1" d="M133.68,76.13c-4.3-3.28-9.85-8.3-11.37-10.85V98.67a7.48,7.48,0,0,0-4.2-1.1,12.29,12.29,0,0,0-2.35.23c-4.47.87-8.1,3.91-8.1,6.78,0,2.35,2.42,3.87,5.75,3.87a12.33,12.33,0,0,0,2.35-.24c4.47-.87,8.1-3.91,8.1-6.78V79c.71.34,1.45.62,1.66.71,3.57,1.42,9.9,1,11.26,5.65C136.78,85.32,138,79.4,133.68,76.13Z"/><path class="cls-1" d="M87.16,133.37a7.58,7.58,0,0,0-4.28-1.13,12.74,12.74,0,0,0-2.39.24c-4.55.89-8.24,4-8.24,6.9,0,2.39,2.47,3.93,5.85,3.93a12.66,12.66,0,0,0,2.39-.24c4.55-.88,8.24-4,8.24-6.9V100.7H87.16Z"/><path class="cls-1" d="M42,48.94a25.34,25.34,0,0,0-3.17.19c-.15-2.77-1.22-18.51-1.22-18.51s4.75-3.82,6.93-5.68c6.65-5.69,12.8-19.08,4.29-23.81a8.29,8.29,0,0,0-4-1.13C37.5,0,32.7,11.7,32.32,19.16c-.13,2.65-.28,5.31-.35,8-4.71,2.47-9.81,4.47-13.8,7.11A41.17,41.17,0,0,0,.58,60.62c-3.32,18.19,7.81,34.5,25.85,37.74a26.89,26.89,0,0,0,5.17.49,32.25,32.25,0,0,0,3.79-.23c.55,6.88,1.27,14.9-1.65,20.69-2,4.07-5.32,5.74-8.76,5.74-6.19,0-12.9-5.41-13.88-12a10.76,10.76,0,0,1,2.76-9.2,8.65,8.65,0,0,1,5.51-2.71,3.66,3.66,0,0,1,2.37.82,4.82,4.82,0,0,1,1.12,5.55c-.58,1.23-1.68,2.18-2.19,3.44a4.76,4.76,0,0,0,2.62,5.87,5.16,5.16,0,0,0,2,.39,6.15,6.15,0,0,0,4.49-2,7.26,7.26,0,0,0,1.75-4.29c.66-4.1-2.25-8.62-5.7-10.66a13.4,13.4,0,0,0-6.77-2c-9.17,0-14.45,12-9.82,21.33,3.3,6.65,8.75,9.57,14.18,9.57,7.9,0,15.74-6.18,16.8-16,.51-5.17.74-10.4.81-15.67,17.66-5.12,33.68-24.31,19.07-41.19C55.82,51.36,48.67,48.94,42,48.94ZM29.94,88.52C22.19,88.52,8.12,86,5.7,68.1,4.2,56.92,11.67,46,20.94,39.6a77.67,77.67,0,0,1,10.93-6c0,5.82.19,11.67.48,17.52a17.61,17.61,0,0,0-5,3.86c-3.38,3.77-5.31,9.1-3.33,14a6.3,6.3,0,0,0,1.43,2.28,3.28,3.28,0,0,0,2.23,1h.21a3.35,3.35,0,0,0,2.76-3.08,7.48,7.48,0,0,0-1.14-4.28c-1-1.86-2.81-3.54-2.1-5.84a4.84,4.84,0,0,1,1.92-2.36,21.4,21.4,0,0,1,3.15-2.28c.73,13.18,2.54,33.76,2.54,33.76A30.52,30.52,0,0,1,29.94,88.52ZM40.54,9.7A4.23,4.23,0,0,1,44,7.61c2.95,0,5.33,4.12,1.68,9.28-2.26,3.19-4.12,4.64-8.33,7C37.22,18.25,37.88,12.86,40.54,9.7Zm17.2,67.23C54,85.1,41.05,87.78,41.05,87.78s-1.23-22.14-2-35.46a18.43,18.43,0,0,1,2-.11,20.6,20.6,0,0,1,3.2.26C56.26,54.49,63,65.44,57.74,76.93Z"/></g></g></svg>