<svg xmlns="http://www.w3.org/2000/svg" viewBox="0 0 55.94 83.12"><defs><style>.cls-1{fill:#fff;}</style></defs><title>new</title><g id="Layer_2" data-name="Layer 2"><g id="Layer_1-2" data-name="Layer 1"><path class="cls-1" d="M37.26,78.42,18.82,76.75a.82.82,0,0,0-.7,1.34.77.77,0,0,0,.56.29l18.44,1.68a.82.82,0,1,0,.14-1.64Z"/><polygon class="cls-1" points="37.12 80.06 37.12 80.06 37.12 80.06 37.12 80.06"/><path class="cls-1" d="M25.15,82a3.8,3.8,0,0,0,2.36,1.06A3.32,3.32,0,0,0,31,81.2l-6.66-.6A2.69,2.69,0,0,0,25.15,82Z"/><path class="cls-1" d="M37.27,74.41,18.82,72.74a.82.82,0,0,0-.7,1.34.81.81,0,0,0,.55.29L37.12,76a.82.82,0,0,0,.15-1.63Z"/><polygon class="cls-1" points="37.12 76.05 37.12 76.05 37.12 76.05 37.12 76.05"/><path class="cls-1" d="M37.3,70.39,18.78,68.71h-.07a.82.82,0,0,0-.82.75.82.82,0,0,0,.75.89L37.16,72a.8.8,0,0,0,.59-.19.81.81,0,0,0-.45-1.44Z"/><path class="cls-1" d="M25,59.51a.9.9,0,0,1-.9-.9,91,91,0,0,0-.86-14.85A47,47,0,0,0,19.1,31.09l0-.1c0-.1-.06-.17-.08-.24l0-.11a1.7,1.7,0,0,1-.06-.31,4.4,4.4,0,0,1,0-.46,2.51,2.51,0,0,1,.05-.39.9.9,0,0,1,0-.19,1.57,1.57,0,0,1,.07-.18.91.91,0,0,1,.06-.16,1.4,1.4,0,0,1,.14-.27l.06-.09a2.47,2.47,0,0,1,.21-.27,2.11,2.11,0,0,1,.3-.27l.11-.11.1,0a1.93,1.93,0,0,1,1.67-.14A15,15,0,0,1,24.09,29l.09.05c.48.29,1.31.8,1.5.61l1.5-1.46a2,2,0,0,1,2.83,0l1.47,1.44c.18.17,1-.33,1.52-.63a15.18,15.18,0,0,1,2.48-1.29l.19-.05a1.9,1.9,0,0,1,1.46.17,2.29,2.29,0,0,1,1.08,1.43,2.61,2.61,0,0,1-.16,1.78,47.53,47.53,0,0,0-4.13,12.66,91.55,91.55,0,0,0-.84,14.85.91.91,0,0,1-.91.9h0a.9.9,0,0,1-.9-.9,92.65,92.65,0,0,1,.88-15.14,49.14,49.14,0,0,1,4.27-13.14.78.78,0,0,0,0-.54.52.52,0,0,0-.21-.32.19.19,0,0,0-.12,0l-.07,0A16.14,16.14,0,0,0,34,30.56c-1.13.68-2.59,1.55-3.76.42l-1.49-1.45c-.14-.14-.24-.08-.3,0L26.93,31c-1.18,1.14-2.63.26-3.7-.38l-.09-.05a13,13,0,0,0-2.1-1.1h-.1l-.22.26h0l0,.09c0,.07,0,.11,0,.14v.13c0,.06,0,.1,0,.14l.06.15A48.8,48.8,0,0,1,25,43.47a93.56,93.56,0,0,1,.88,15.14.9.9,0,0,1-.9.9ZM20.27,29.62l.35.06-.76-.24Z"/><path class="cls-1" d="M36.4,67.9h0A.89.89,0,0,1,35.5,67c.35-6.81,2.16-11,6.25-14.62a101,101,0,0,0,7.36-8.94A26.18,26.18,0,0,0,46.47,9.46,26.21,26.21,0,0,0,18,3.78L17.51,4a25.94,25.94,0,0,0-8,5.49A26.14,26.14,0,0,0,6.82,43.39a100.12,100.12,0,0,0,7.5,9l.62.68h0c3.45,3.78,5.35,6.15,5.65,11.84a.9.9,0,0,1-1.8.09c-.28-5.37-2-7.25-5.77-11.37L12.39,53h0a99.08,99.08,0,0,1-7-8.54A28.05,28.05,0,0,1,2.11,17.28l0-.1A28.22,28.22,0,0,1,17.27,2.11l1.24-.51v0A28,28,0,0,1,55.94,28a28,28,0,0,1-5.37,16.49,105.2,105.2,0,0,1-7.52,9.13l-.08.08c-3.71,3.22-5.35,7.1-5.67,13.38A.91.91,0,0,1,36.4,67.9Z"/><path class="cls-1" d="M6.8,22.91l-.18,0a.91.91,0,0,1-.71-1.06C7.06,16.09,13.5,9,17.65,7.61a.9.9,0,1,1,.56,1.71c-3.56,1.15-9.53,7.84-10.53,12.86A.91.91,0,0,1,6.8,22.91Z"/><path class="cls-1" d="M6.8,34.05A.89.89,0,0,1,6,33.47,28.37,28.37,0,0,1,5,26.87a.9.9,0,0,1,1.8,0,27.7,27.7,0,0,0,.8,5.95A.91.91,0,0,1,7.12,34,1,1,0,0,1,6.8,34.05Z"/></g></g></svg>