<svg xmlns="http://www.w3.org/2000/svg" viewBox="0 0 96.95 84.74"><defs><style>.cls-1{fill:#fff;}</style></defs><title>pet</title><g id="Layer_2" data-name="Layer 2"><g id="Layer_1-2" data-name="Layer 1"><path class="cls-1" d="M64.83,45.32a23.6,23.6,0,0,0-39.75,0L14.57,61.72A14.94,14.94,0,0,0,33.16,83.47l.2-.09a29.36,29.36,0,0,1,23.39.09,14.93,14.93,0,0,0,6,1.27,15.21,15.21,0,0,0,3.34-.38,15,15,0,0,0,9.26-22.64Z"/><path class="cls-1" d="M17.4,45.3a11.46,11.46,0,0,0,6.69-7.09,15.23,15.23,0,0,0-6.91-18,11.48,11.48,0,0,0-9.72-.79C1.18,21.88-1.7,29.64,1,36.77,3.22,42.45,8.33,46,13.49,46A10.91,10.91,0,0,0,17.4,45.3Z"/><path class="cls-1" d="M37.8,32.45C45.65,32.45,52,25.18,52,16.23S45.65,0,37.8,0,23.56,7.28,23.56,16.23,30,32.45,37.8,32.45Z"/><path class="cls-1" d="M62.39,36.44h0a11.69,11.69,0,0,0,3.67.59c5.73,0,11.31-4.17,13.44-10.57a15.86,15.86,0,0,0-.23-11A12,12,0,0,0,61.43,9.55a15.93,15.93,0,0,0-6.76,8.66C52.09,26,55.55,34.17,62.39,36.44Z"/><path class="cls-1" d="M92.39,34.55h0c-5.41-4-13.51-2.26-18,3.87S70.5,52.8,75.91,56.8A11.13,11.13,0,0,0,82.59,59a14.41,14.41,0,0,0,11.38-6C98.5,46.8,97.79,38.55,92.39,34.55Z"/></g></g></svg>