<svg xmlns="http://www.w3.org/2000/svg" viewBox="0 0 80.83 106.66"><defs><style>.cls-1,.cls-2{fill:#fff;}.cls-2{fill-rule:evenodd;}</style></defs><title>travel</title><g id="Layer_2" data-name="Layer 2"><g id="Layer_1-2" data-name="Layer 1"><rect class="cls-1" x="37.02" width="8.91" height="10.2"/><rect class="cls-1" x="37.02" y="33.67" width="8.91" height="14.14"/><polygon class="cls-2" points="9.17 48.9 63.66 48.9 53.85 57.31 63.66 65.57 9.17 65.57 0 56.79 9.17 48.9"/><polygon class="cls-2" points="69.72 11.33 80.83 21.94 69.72 32.54 0 32.54 12.41 21.86 0.97 11.6 69.72 11.33"/><path class="cls-2" d="M45.86,96.07V66.81H37V96.07a1.74,1.74,0,0,1-1.74,1.74h-12a1.74,1.74,0,0,0-1.74,1.74v5.37a1.74,1.74,0,0,0,1.74,1.74H59.61a1.74,1.74,0,0,0,1.74-1.74V99.55a1.74,1.74,0,0,0-1.74-1.74h-12A1.74,1.74,0,0,1,45.86,96.07Z"/></g></g></svg>