<svg xmlns="http://www.w3.org/2000/svg" viewBox="0 0 89.51 81.59"><defs><style>.cls-1{fill:#fff;}</style></defs><title>volunteer</title><g id="Layer_2" data-name="Layer 2"><g id="Layer_1-2" data-name="Layer 1"><g id="favorite"><path class="cls-1" d="M42.67,35.06l-.74-.74C31.43,25,24.57,18.77,24.57,11.1A10.94,10.94,0,0,1,35.67,0a12.13,12.13,0,0,1,9.09,4.24A12.11,12.11,0,0,1,53.84,0a10.94,10.94,0,0,1,11.1,11.1c0,7.67-6.86,13.93-17.36,23.22l-.74.74A3,3,0,0,1,42.67,35.06Z"/></g><path class="cls-1" d="M22.62,59.23V79.71a1.88,1.88,0,0,0,1.88,1.88H64.87A2.61,2.61,0,0,0,67.48,79V59.52a5.1,5.1,0,0,1,1.21-3.3l17.74-21a12.93,12.93,0,0,0,2.8-5.44,8.12,8.12,0,0,0-1.53-7.41c-4.08-4.61-10.29-3.19-14.19,1.42S59.74,41.87,45.35,41.69,21.2,29.46,17,24.31,7.27,18,3,21.3s-3.86,8.19-.08,13.12c2.85,3.71,15,17.83,18.65,22A4.21,4.21,0,0,1,22.62,59.23Z"/></g></g></svg>